<?xml version="1.0" encoding="UTF-8" standalone="no"?>
<!-- Created with Inkscape (http://www.inkscape.org/) -->

<svg
   xmlns:dc="http://purl.org/dc/elements/1.1/"
   xmlns:cc="http://creativecommons.org/ns#"
   xmlns:rdf="http://www.w3.org/1999/02/22-rdf-syntax-ns#"
   xmlns:svg="http://www.w3.org/2000/svg"
   xmlns="http://www.w3.org/2000/svg"
   xmlns:sodipodi="http://sodipodi.sourceforge.net/DTD/sodipodi-0.dtd"
   xmlns:inkscape="http://www.inkscape.org/namespaces/inkscape"
   width="210mm"
   height="297mm"
   viewBox="0 0 210 297"
   version="1.1"
   id="svg8"
   sodipodi:docname="ROC.svg"
   inkscape:version="0.92.2 (5c3e80d, 2017-08-06)"
   inkscape:export-filename="C:\Users\Israel RC\Desktop\Certificacion paginas web\Proyecto final HTML\logo_svg\ROC.png"
   inkscape:export-xdpi="96"
   inkscape:export-ydpi="96">
  <defs
     id="defs2" />
  <sodipodi:namedview
     id="base"
     pagecolor="#ffffff"
     bordercolor="#666666"
     borderopacity="1.0"
     inkscape:pageopacity="0.0"
     inkscape:pageshadow="2"
     inkscape:zoom="1.979899"
     inkscape:cx="292.56845"
     inkscape:cy="947.0367"
     inkscape:document-units="mm"
     inkscape:current-layer="layer1"
     showgrid="false"
     inkscape:window-width="1920"
     inkscape:window-height="1001"
     inkscape:window-x="-9"
     inkscape:window-y="-9"
     inkscape:window-maximized="1" />
  <metadata
     id="metadata5">
    <rdf:RDF>
      <cc:Work
         rdf:about="">
        <dc:format>image/svg+xml</dc:format>
        <dc:type
           rdf:resource="http://purl.org/dc/dcmitype/StillImage" />
      </cc:Work>
    </rdf:RDF>
  </metadata>
  <g
     inkscape:label="Capa 1"
     inkscape:groupmode="layer"
     id="layer1">
    <ellipse
       id="path3699"
       cx="71"
       cy="52"
       rx="44.624107"
       ry="44.624111"
       style="fill:#ff0000;stroke:#000000;stroke-width:0.75178063;stroke-miterlimit:4;stroke-dasharray:none;stroke-opacity:0.88073395" />
    <circle
       style="fill:#ffffff;stroke:#000000;stroke-width:0;stroke-miterlimit:4;stroke-dasharray:none;stroke-opacity:0.88073395"
       id="path4532"
       cx="70.944473"
       cy="52.189152"
       r="40" />
    <flowRoot
       xml:space="preserve"
       id="flowRoot4534"
       style="font-style:italic;font-variant:normal;font-weight:normal;font-stretch:normal;font-size:39.99981308px;line-height:1.25;font-family:'#44 Font Italic';-inkscape-font-specification:'#44 Font Italic, Italic';font-variant-ligatures:normal;font-variant-caps:normal;font-variant-numeric:normal;font-feature-settings:normal;text-align:center;letter-spacing:0px;word-spacing:0px;writing-mode:lr-tb;text-anchor:middle;fill:#000000;fill-opacity:1;stroke:none"
       transform="matrix(0.79089871,0,0,0.93070653,-152.66127,-119.49331)"><flowRegion
         id="flowRegion4536"
         style="font-style:italic;font-variant:normal;font-weight:normal;font-stretch:normal;font-size:39.99981308px;font-family:'#44 Font Italic';-inkscape-font-specification:'#44 Font Italic, Italic';font-variant-ligatures:normal;font-variant-caps:normal;font-variant-numeric:normal;font-feature-settings:normal;text-align:center;writing-mode:lr-tb;text-anchor:middle"><rect
           id="rect4538"
           width="272.74118"
           height="109.60155"
           x="140.91628"
           y="159.33923"
           style="font-style:italic;font-variant:normal;font-weight:normal;font-stretch:normal;font-size:39.99981308px;font-family:'#44 Font Italic';-inkscape-font-specification:'#44 Font Italic, Italic';font-variant-ligatures:normal;font-variant-caps:normal;font-variant-numeric:normal;font-feature-settings:normal;text-align:center;writing-mode:lr-tb;text-anchor:middle" /></flowRegion><flowPara
         id="flowPara4540">ROC</flowPara></flowRoot>    <path
       style="fill:#000000;stroke:#000000;stroke-width:0;stroke-miterlimit:4;stroke-dasharray:none;stroke-opacity:0.88073395"
       id="path4670"
       d="m 38.897099,69.238968 c 1.208455,0.05586 2.415659,-0.0077 3.6225,-0.06646 1.745555,-0.08586 3.485494,-0.254638 5.230546,-0.35324 0.723574,-0.03779 1.448305,-8e-6 2.171991,-0.0098 0.670012,-0.009 1.340995,-0.05925 2.009841,-0.09642 1.125492,-0.07099 2.25285,-0.101002 3.380277,-0.116883 0.931293,-0.01405 1.862682,-0.01085 2.794042,-0.01074 1.317826,0.01699 2.634723,0.01085 3.952224,-0.02096 1.690166,-0.03678 3.380071,-0.0601 5.067506,-0.168608 1.265312,-0.09031 2.53169,-0.162515 3.796044,-0.26593 1.468199,-0.160055 2.936404,-0.306674 4.411088,-0.391102 1.417124,-0.06441 2.835799,-0.07476 4.254119,-0.07939 1.287126,-0.0036 2.574258,-0.0013 3.861385,-0.0019 0.997084,0.02808 1.993296,0.07806 2.990471,0.103947 0.758365,0.01646 1.516946,0.01995 2.275459,0.01638 0.401804,-0.02715 0.8137,0.03481 1.21176,-0.03231 0.349239,-0.06657 0.704517,-0.08372 1.058995,-0.09619 0.359841,-0.01254 0.719883,-0.01347 1.079889,-0.01386 0.360518,7.93e-4 0.72104,0.0013 1.081561,0.0011 0.298712,-0.0154 0.603562,0.02976 0.898318,-0.0267 0.310992,-0.07108 0.630489,-0.08171 0.947891,-0.09578 0.312198,-0.03302 0.607886,-0.129882 0.911127,-0.202838 0.28365,-0.04903 0.56778,-0.07333 0.851094,-0.124351 0.384127,-0.03848 0.758044,-0.127813 1.13408,-0.211006 0.356619,-0.08129 0.719948,-0.119869 1.084625,-0.137488 0.278382,0.0024 0.547757,-0.0056 0.820577,-0.05824 0.265731,-0.05172 0.536131,-0.06701 0.806071,-0.07624 0.26793,-0.0067 0.53597,-0.0058 0.80397,-0.0056 0.26729,2.64e-4 0.53458,7.93e-4 0.80188,7.93e-4 0.2665,-0.01072 0.52796,-0.07828 0.79456,-0.106365 0.24803,0.006 0.47676,-0.08418 0.71871,-0.123206 0.25166,-0.033 0.50593,-0.03531 0.75933,-0.038 0.26677,-0.0016 0.53354,-5.29e-4 0.80031,-2.06e-4 0.0446,6.1e-5 0.0892,1.22e-4 0.1338,1.8e-4 0,0 -1.60347,1.164656 -1.60347,1.164656 v 0 c -0.0446,-6.1e-5 -0.0892,-1.19e-4 -0.13379,-1.8e-4 -0.26611,-2.65e-4 -0.53225,-0.0013 -0.79832,0.0037 -0.24819,0.0068 -0.49761,0.0159 -0.74156,0.06633 -0.23977,0.05234 -0.47766,0.100049 -0.72391,0.110895 -0.26877,0.03752 -0.53593,0.100335 -0.80907,0.08693 -0.26726,-2.2e-4 -0.53451,-7.94e-4 -0.801759,-5.29e-4 -0.266219,5.29e-4 -0.532583,2.64e-4 -0.798566,0.01304 -0.265858,0.01585 -0.530278,0.04478 -0.792154,0.09447 -0.27563,0.03744 -0.553308,0.0223 -0.830535,0.04022 -0.355643,0.02524 -0.709002,0.07323 -1.056238,0.15602 -0.379921,0.08652 -0.762804,0.153561 -1.14835,0.209666 -0.281239,0.04695 -0.567746,0.06208 -0.843875,0.137512 -0.305287,0.08044 -0.613524,0.150582 -0.929966,0.168881 -0.317545,0.01916 -0.631788,0.05701 -0.945523,0.109432 -0.30208,0.01392 -0.604657,0.0024 -0.906975,0.0047 -0.360561,-0.0011 -0.721128,-0.0013 -1.081688,-2.35e-4 -0.357,0.0011 -0.714148,0.0027 -1.070875,0.01804 -0.354711,0.02019 -0.706887,0.05733 -1.058299,0.109842 -0.400714,0.01733 -0.802063,-0.0011 -1.202994,-2.6e-5 -0.753642,-0.0075 -1.507382,-0.01085 -2.260783,-0.03331 -0.98788,-0.03135 -1.974487,-0.09132 -2.962542,-0.117557 -1.28406,-0.0024 -2.56812,-0.0046 -3.852182,-0.0039 -1.413944,0.0052 -2.828645,0.01037 -4.241102,0.0826 -1.478716,0.08707 -2.950419,0.239138 -4.422161,0.404955 -1.258742,0.104556 -2.519672,0.174043 -3.780454,0.248899 -1.686483,0.0894 -3.374927,0.111035 -5.062926,0.157835 -1.334646,0.03883 -2.669329,0.05628 -4.004577,0.05281 -0.928521,-2.64e-4 -1.857066,0.0011 -2.78556,0.0079 -1.119304,0.01543 -2.238375,0.04454 -3.356105,0.108593 -0.67066,0.03489 -1.342361,0.07944 -2.014151,0.08445 -2.648678,0.01977 1.363361,-0.03998 -1.384961,-0.0089 -0.254871,0.0029 -0.509641,0.01161 -0.764461,0.01741 -1.742104,0.09248 -3.478871,0.255146 -5.220906,0.345417 -1.24178,0.06761 -2.48329,0.125436 -3.727175,0.130675 0,0 1.601922,-1.163865 1.601922,-1.163865 z"
       inkscape:connector-curvature="0" />
    <path
       style="fill:#000000;stroke:#000000;stroke-width:0;stroke-miterlimit:4;stroke-dasharray:none;stroke-opacity:0.88073395"
       id="path4672"
       d="m 40.753098,35.29494 c 1.173411,0.02511 2.347148,0.03308 3.52076,0.04348 2.267474,-0.02207 4.532538,-0.142274 6.79922,-0.203533 2.088071,-0.07453 4.168334,-0.264234 6.249903,-0.434499 1.370119,-0.121068 2.745769,-0.13989 4.117308,-0.235868 1.589331,-0.16913 3.185269,-0.24243 4.781984,-0.293084 1.607566,-0.02688 3.212531,-0.04826 4.81647,-0.165788 1.816436,-0.186796 3.636161,-0.361209 5.444683,-0.615222 1.401231,-0.235869 2.806107,-0.446572 4.210828,-0.659702 0.946391,-0.146717 1.902669,-0.193889 2.858722,-0.215813 1.342578,-0.0235 2.683156,-0.149722 4.019828,-0.274267 1.18046,-0.11739 2.363092,-0.206555 3.548383,-0.254021 0.735853,-0.03563 1.473784,7.9e-5 2.208918,-0.04506 0.555668,-0.05005 1.120013,-0.104521 1.664645,-0.230915 0.315113,-0.05816 0.611457,-0.17807 0.925295,-0.240869 0.266999,-0.04532 0.538417,-0.04865 0.808475,-0.05159 0.266938,-0.0013 0.533878,1.16e-4 0.800817,7.93e-4 0.267213,5.3e-4 0.534429,7.94e-4 0.801642,7.94e-4 0.267272,6.1e-5 0.534543,4.8e-5 0.801812,4.2e-5 0.267271,-5e-6 0.534543,-7e-6 0.801812,-10e-6 0.267267,-3e-6 0.534537,0 0.801807,-3e-6 0.26727,0 0.53454,3e-6 0.80181,3e-6 0.17818,0 0.35636,0 0.53454,0 0,0 -1.60333,1.164886 -1.60333,1.164886 v 0 c -0.17818,0 -0.35636,0 -0.534539,0 -0.267269,0 -0.534538,0 -0.801806,0 -0.267272,0 -0.534541,0 -0.80181,3e-6 -0.267268,0 -0.53454,5e-6 -0.801811,8e-6 -0.267288,0 -0.534578,8e-6 -0.801868,-1.17e-4 -0.26729,-1.61e-4 -0.534583,-5.29e-4 -0.801875,-0.0011 -0.266094,-5.29e-4 -0.532231,-0.0021 -0.798293,0.003 -0.262779,0.0079 -0.526902,0.02051 -0.783381,0.0834 -0.305745,0.07903 -0.606057,0.179223 -0.918935,0.229306 -0.551048,0.09311 -1.107728,0.164016 -1.665769,0.195247 -0.731176,0.02572 -1.463283,0.003 -2.194549,0.03173 -1.168091,0.03855 -2.334287,0.116869 -3.497617,0.229709 -1.353535,0.123378 -2.708918,0.260773 -4.068112,0.294428 -0.948256,0.02902 -1.896398,0.08275 -2.835278,0.226634 -1.389628,0.194316 -2.776818,0.402876 -4.162872,0.621686 -1.814967,0.240777 -3.637502,0.429697 -5.459166,0.61137 -1.605193,0.115568 -3.21155,0.139454 -4.820401,0.159404 -1.604738,0.05288 -3.207084,0.146362 -4.804,0.317992 -1.360035,0.09521 -2.723973,0.106953 -4.083561,0.212754 -2.075376,0.152681 -4.149055,0.334439 -6.229456,0.407847 -2.272056,0.05893 -4.542514,0.165577 -6.814912,0.208982 -1.213506,0.0105 -2.427121,0.01876 -3.640439,0.04348 0,0 1.604118,-1.165461 1.604118,-1.165461 z"
       inkscape:connector-curvature="0" />
  </g>
</svg>
